<svg width="80" height="80" viewBox="0 0 80 80" fill="none" xmlns="http://www.w3.org/2000/svg">
<rect width="80" height="80" rx="40" fill="#FFE500"/>
<path d="M3 30.535L16.6339 30.535L16.6339 35.4568C17.2374 33.8162 18.1614 32.4966 19.406 31.4979C20.6506 30.4993 22.5363 30 25.0632 30C30.909 30 33.8319 32.9781 33.8319 38.9342L33.8319 55.037L37 55.037L37 56L20.99 56L20.99 55.037L23.3095 55.037L23.3095 37.6502C23.3095 35.5103 23.1586 34.1372 22.8569 33.5309C22.5552 32.8889 22.0083 32.5679 21.2163 32.5679C20.0094 32.5679 18.9346 33.3169 17.9917 34.8148C17.0865 36.3128 16.6339 38.1317 16.6339 40.2716L16.6339 55.037L19.0666 55.037L19.0666 56L3 56L3 55.037L6.11148 55.037L6.11148 31.4979L3 31.4979L3 30.535Z" fill="#00B5C6"/>
<path d="M66.1771 7.11317L68.4502 5.73903C68.7749 4.06852 68.1255 3.23326 66.5018 3.23326C64.1747 3.23326 63.0111 5.01155 63.0111 8.56813C63.0111 9.96921 63.2005 11.5858 63.5793 13.418C67.6925 16.1663 69.7491 19.6959 69.7491 24.0069C69.7491 28.2641 68.2608 31.5781 65.2841 33.9492C62.3075 36.3202 58.2755 37.5058 53.1882 37.5058C51.0775 37.5058 48.8856 37.2902 46.6125 36.8591C44.2312 38.368 43.0406 39.4996 43.0406 40.254C43.0406 41.0085 44.7724 41.3857 48.2362 41.3857L56.5166 41.3857C68.802 41.3857 74.9447 45.7775 74.9447 54.5612C74.9447 59.3033 73.0775 63.0485 69.3432 65.7968C65.663 68.5989 59.8991 70 52.0517 70C38.6839 70 32 67.117 32 61.351C32 58.2256 34.0836 56.0701 38.2509 54.8845L43.1218 57.067C42.6888 58.6297 42.4723 60.1116 42.4723 61.5127C42.4723 66.147 45.936 68.4642 52.8635 68.4642C57.0849 68.4642 60.3321 67.6828 62.6052 66.1201C64.8782 64.5574 66.0148 62.6174 66.0148 60.3002C66.0148 57.9831 65.3112 56.4203 63.9041 55.612C62.551 54.8576 59.818 54.4804 55.7048 54.4804L47.8303 54.4804C43.4465 54.4804 40.3075 53.7529 38.4133 52.2979C36.5191 50.843 35.572 49.0647 35.572 46.9631C35.572 44.8076 36.2485 43.0293 37.6015 41.6282C38.9545 40.1732 41.3629 38.3949 44.8266 36.2933C38.5486 34.515 35.4096 30.4196 35.4096 24.0069C35.4096 19.9654 36.8708 16.7052 39.7934 14.2263C42.7159 11.7475 47.0996 10.5081 52.9447 10.5081C56.4625 10.5081 59.4662 11.1817 61.9557 12.5289C61.631 11.0739 61.4686 9.75366 61.4686 8.56813C61.4686 5.55042 62.2804 3.36798 63.9041 2.02079C65.5277 0.673595 67.3407 4.64919e-08 69.3432 4.91262e-08C71.3456 5.17605e-08 72.9422 0.538875 74.1328 1.61663C75.3776 2.64049 76 4.06852 76 5.90069C76 7.73288 75.5129 9.10701 74.5387 10.0231C73.5646 10.8853 72.3739 11.3164 70.9668 11.3164C69.6138 11.3164 68.4772 10.9661 67.5572 10.2656C66.6913 9.51116 66.2312 8.46036 66.1771 7.11317ZM48.9668 22.2286L48.9668 26.5935C48.9668 30.204 49.2645 32.6559 49.8598 33.9492C50.5092 35.2425 51.4563 35.8892 52.7011 35.8892C54 35.8892 54.9201 35.2694 55.4613 34.03C56.0566 32.7367 56.3542 30.1232 56.3542 26.1894L56.3542 22.2286C56.3542 18.0254 56.0836 15.2771 55.5424 13.9838C55.0012 12.6366 54.0812 11.9631 52.7823 11.9631C51.5375 11.9631 50.5904 12.6636 49.941 14.0647C49.2915 15.4119 48.9668 18.1332 48.9668 22.2286Z" fill="#00B5C6"/>
</svg>
