<svg width="232" height="153" viewBox="0 0 232 153" fill="none" xmlns="http://www.w3.org/2000/svg">
<path d="M0.666947 32.5444L14.0615 32.5444L14.0615 37.6577C14.6543 35.9533 15.5621 34.5823 16.7848 33.5448C18.0076 32.5074 19.8602 31.9886 22.3427 31.9886C28.0859 31.9886 30.9575 35.0825 30.9575 41.2703L30.9575 57.9996L34.0699 57.9996L34.0699 59L18.3411 59L18.3411 57.9996L20.6198 57.9996L20.6198 39.9364C20.6198 37.7133 20.4716 36.2867 20.1752 35.6568C19.8787 34.9899 19.3415 34.6564 18.5634 34.6564C17.3777 34.6564 16.3217 35.4345 15.3954 36.9907C14.5061 38.5469 14.0615 40.4366 14.0615 42.6598L14.0615 57.9996L16.4514 57.9996L16.4514 59L0.666947 59L0.666947 57.9996L3.72379 57.9996L3.72379 33.5448L0.666947 33.5448L0.666947 32.5444ZM49.4214 59.5558C44.6416 59.5558 41.0475 58.3331 38.6391 55.8876C36.2677 53.4051 35.082 49.9777 35.082 45.6055C35.082 41.1962 36.4159 37.8244 39.0837 35.4901C41.7886 33.1558 45.2159 31.9886 49.3658 31.9886C57.7768 31.9886 61.8155 36.2126 61.482 44.6606L45.8088 44.6606L45.8088 46.8282C45.8088 50.4594 46.2719 53.2013 47.1983 55.0539C48.1246 56.9065 49.7364 57.8328 52.0336 57.8328C56.3317 57.8328 59.1477 55.5356 60.4816 50.9411L61.482 51.1078C60.778 53.7756 59.4997 55.8505 57.6471 57.3326C55.8315 58.8147 53.0896 59.5558 49.4214 59.5558ZM45.8644 43.5491L51.589 43.5491L51.589 40.8257C51.589 37.8244 51.4037 35.7865 51.0332 34.712C50.6997 33.6004 49.9957 33.0446 48.9212 33.0446C47.8837 33.0446 47.1056 33.6375 46.5869 34.8232C46.1052 35.9718 45.8644 37.9726 45.8644 40.8257L45.8644 43.5491ZM82.0254 34.1006C80.6545 34.1006 79.4503 34.9899 78.4128 36.7684C77.3753 38.5469 76.8566 40.6589 76.8566 43.1044L76.8566 57.9996L80.8027 57.9996L80.8027 59L63.462 59L63.462 57.9996L66.5189 57.9996L66.5189 33.5448L63.462 33.5448L63.462 32.5444L76.8566 32.5444L76.8566 37.88C77.3383 35.9903 78.2646 34.5453 79.6355 33.5448C81.0065 32.5074 82.5627 31.9886 84.3041 31.9886C86.0456 31.9886 87.4536 32.4888 88.5281 33.4893C89.6397 34.4526 90.1955 35.8421 90.1955 37.6577C90.1955 39.4362 89.7879 40.8072 88.9728 41.7705C88.1576 42.7339 86.8978 43.2156 85.1934 43.2156C83.526 43.2156 82.2848 42.6598 81.4696 41.5482C80.6915 40.4366 80.5989 38.8989 81.1917 36.9352L83.1926 36.9352C84.1189 35.0455 83.7298 34.1006 82.0254 34.1006ZM108.661 48.0509L108.661 43.3267C108.661 39.7326 108.457 37.1204 108.049 35.4901C107.679 33.8227 106.79 32.9891 105.382 32.9891C104.566 32.9891 103.899 33.2299 103.381 33.7116C102.899 34.1562 102.547 34.9158 102.325 35.9903C101.991 37.6577 101.825 40.1958 101.825 43.6046L101.825 47.9398C101.825 51.9785 101.936 54.4055 102.158 55.2206C102.417 56.0358 102.677 56.7027 102.936 57.2215C103.344 58.1107 104.14 58.5554 105.326 58.5554C106.771 58.5554 107.716 57.7217 108.161 56.0543C108.494 54.8686 108.661 52.2008 108.661 48.0509ZM105.215 59.5558C100.583 59.5558 97.0818 58.3701 94.7104 55.9987C92.3391 53.6274 91.1534 50.2371 91.1534 45.8278C91.1534 41.3815 92.4132 37.9726 94.9328 35.6013C97.4894 33.1928 101.065 31.9886 105.659 31.9886C110.254 31.9886 113.681 33.1002 115.942 35.3234C118.202 37.5095 119.332 40.8627 119.332 45.3832C119.332 54.8316 114.626 59.5558 105.215 59.5558Z" fill="#00B4C5"/>
<path d="M32.152 65.104L33.048 64.56C33.176 63.8987 32.92 63.568 32.28 63.568C31.3627 63.568 30.904 64.272 30.904 65.68C30.904 66.2347 30.9787 66.8747 31.128 67.6C32.7493 68.688 33.56 70.0853 33.56 71.792C33.56 73.4773 32.9733 74.7893 31.8 75.728C30.6267 76.6667 29.0373 77.136 27.032 77.136C26.2 77.136 25.336 77.0507 24.44 76.88C23.5013 77.4773 23.032 77.9253 23.032 78.224C23.032 78.5227 23.7147 78.672 25.08 78.672L28.344 78.672C33.1867 78.672 35.608 80.4107 35.608 83.888C35.608 85.7653 34.872 87.248 33.4 88.336C31.9493 89.4453 29.6773 90 26.584 90C21.3147 90 18.68 88.8587 18.68 86.576C18.68 85.3387 19.5013 84.4853 21.144 84.016L23.064 84.88C22.8933 85.4987 22.808 86.0853 22.808 86.64C22.808 88.4747 24.1733 89.392 26.904 89.392C28.568 89.392 29.848 89.0827 30.744 88.464C31.64 87.8453 32.088 87.0773 32.088 86.16C32.088 85.2427 31.8107 84.624 31.256 84.304C30.7227 84.0053 29.6453 83.856 28.024 83.856L24.92 83.856C23.192 83.856 21.9547 83.568 21.208 82.992C20.4613 82.416 20.088 81.712 20.088 80.88C20.088 80.0267 20.3547 79.3227 20.888 78.768C21.4213 78.192 22.3707 77.488 23.736 76.656C21.2613 75.952 20.024 74.3307 20.024 71.792C20.024 70.192 20.6 68.9013 21.752 67.92C22.904 66.9387 24.632 66.448 26.936 66.448C28.3227 66.448 29.5067 66.7147 30.488 67.248C30.36 66.672 30.296 66.1493 30.296 65.68C30.296 64.4853 30.616 63.6213 31.256 63.088C31.896 62.5547 32.6107 62.288 33.4 62.288C34.1893 62.288 34.8187 62.5013 35.288 62.928C35.7787 63.3333 36.024 63.8987 36.024 64.624C36.024 65.3493 35.832 65.8933 35.448 66.256C35.064 66.5973 34.5947 66.768 34.04 66.768C33.5067 66.768 33.0587 66.6293 32.696 66.352C32.3547 66.0533 32.1733 65.6373 32.152 65.104ZM25.368 71.088L25.368 72.816C25.368 74.2453 25.4853 75.216 25.72 75.728C25.976 76.24 26.3493 76.496 26.84 76.496C27.352 76.496 27.7147 76.2507 27.928 75.76C28.1627 75.248 28.28 74.2133 28.28 72.656L28.28 71.088C28.28 69.424 28.1733 68.336 27.96 67.824C27.7467 67.2907 27.384 67.024 26.872 67.024C26.3813 67.024 26.008 67.3013 25.752 67.856C25.496 68.3893 25.368 69.4667 25.368 71.088ZM42.9062 74.48L43.8343 74.48L43.8343 72.016C43.8343 69.9893 43.7169 68.6347 43.4823 67.952C43.2689 67.248 42.8423 66.896 42.2023 66.896C41.8183 66.896 41.4663 67.0027 41.1463 67.216C40.8476 67.408 40.6983 67.6853 40.6983 68.048C40.6983 68.3893 40.7623 68.7413 40.8903 69.104L41.6903 69.104C41.8609 69.552 41.9463 70.096 41.9463 70.736C41.9463 71.3547 41.6796 71.8987 41.1463 72.368C40.6129 72.816 39.9409 73.04 39.1302 73.04C37.2956 73.04 36.3783 72.1547 36.3783 70.384C36.3783 67.76 38.6076 66.448 43.0663 66.448C45.6049 66.448 47.3543 66.8853 48.3143 67.76C49.2956 68.6133 49.7863 70.192 49.7863 72.496L49.7863 78.992C49.7863 80.1013 50.0956 80.656 50.7143 80.656C51.4396 80.656 51.8663 79.5573 51.9943 77.36L52.4743 77.392C52.3889 79.2693 52.0369 80.56 51.4183 81.264C50.7996 81.968 49.7863 82.32 48.3783 82.32C45.8183 82.32 44.3463 81.5307 43.9623 79.952C43.6849 80.7627 43.2689 81.36 42.7143 81.744C42.1596 82.128 41.3489 82.32 40.2823 82.32C37.1249 82.32 35.5463 81.0293 35.5463 78.448C35.5463 76.9333 36.1436 75.8987 37.3383 75.344C38.5543 74.768 40.4102 74.48 42.9062 74.48ZM41.6263 78.416C41.6263 79.5253 41.6796 80.24 41.7863 80.56C41.9143 80.88 42.1383 81.04 42.4583 81.04C42.7996 81.04 43.1089 80.7733 43.3863 80.24C43.6849 79.6853 43.8343 78.928 43.8343 77.968L43.8343 74.992L43.6103 74.992C42.2876 74.992 41.6263 75.9627 41.6263 77.904L41.6263 78.416ZM63.4768 67.664C62.6874 67.664 61.9941 68.176 61.3968 69.2C60.7994 70.224 60.5008 71.44 60.5008 72.848L60.5008 81.424L62.7728 81.424L62.7728 82L52.7887 82L52.7887 81.424L54.5488 81.424L54.5488 67.344L52.7887 67.344L52.7887 66.768L60.5008 66.768L60.5008 69.84C60.7781 68.752 61.3114 67.92 62.1008 67.344C62.8901 66.7467 63.7861 66.448 64.7888 66.448C65.7914 66.448 66.6021 66.736 67.2208 67.312C67.8608 67.8667 68.1808 68.6667 68.1808 69.712C68.1808 70.736 67.9461 71.5253 67.4768 72.08C67.0074 72.6347 66.2821 72.912 65.3008 72.912C64.3408 72.912 63.6261 72.592 63.1568 71.952C62.7088 71.312 62.6554 70.4267 62.9968 69.296L64.1488 69.296C64.6821 68.208 64.4581 67.664 63.4768 67.664ZM75.1285 75.376C75.1285 77.616 75.2458 79.1093 75.4805 79.856C75.7152 80.5813 76.1418 80.944 76.7605 80.944C77.4005 80.944 77.9445 80.6667 78.3925 80.112C78.8618 79.5573 79.0965 78.736 79.0965 77.648L79.0965 70.672C79.0965 69.7547 78.9152 68.976 78.5525 68.336C78.1898 67.696 77.6565 67.376 76.9525 67.376C76.2485 67.376 75.7685 67.8453 75.5125 68.784C75.2565 69.7227 75.1285 71.3653 75.1285 73.712L75.1285 75.376ZM79.5125 82L79.1605 79.76C78.4352 81.4667 76.9632 82.32 74.7445 82.32C72.9098 82.32 71.4805 81.6587 70.4565 80.336C69.4538 79.0133 68.9525 77.04 68.9525 74.416C68.9525 69.104 71.0645 66.448 75.2885 66.448C77.1658 66.448 78.4032 66.9707 79.0005 68.016L79.0005 58.576L77.0485 58.576L77.0485 58L85.0485 58L85.0485 81.424L86.6165 81.424L86.6165 82L79.5125 82ZM95.861 82.32C93.109 82.32 91.0397 81.616 89.653 80.208C88.2877 78.7787 87.605 76.8053 87.605 74.288C87.605 71.7493 88.373 69.808 89.909 68.464C91.4663 67.12 93.4397 66.448 95.829 66.448C100.672 66.448 102.997 68.88 102.805 73.744L93.781 73.744L93.781 74.992C93.781 77.0827 94.0477 78.6613 94.581 79.728C95.1143 80.7947 96.0423 81.328 97.365 81.328C99.8397 81.328 101.461 80.0053 102.229 77.36L102.805 77.456C102.4 78.992 101.664 80.1867 100.597 81.04C99.5517 81.8933 97.973 82.32 95.861 82.32ZM93.813 73.104L97.109 73.104L97.109 71.536C97.109 69.808 97.0023 68.6347 96.789 68.016C96.597 67.376 96.1917 67.056 95.573 67.056C94.9757 67.056 94.5277 67.3973 94.229 68.08C93.9517 68.7413 93.813 69.8933 93.813 71.536L93.813 73.104ZM104.009 66.768L111.721 66.768L111.721 69.712C112.062 68.7307 112.585 67.9413 113.289 67.344C113.993 66.7467 115.06 66.448 116.489 66.448C119.796 66.448 121.449 68.2293 121.449 71.792L121.449 81.424L123.241 81.424L123.241 82L114.185 82L114.185 81.424L115.497 81.424L115.497 71.024C115.497 69.744 115.412 68.9227 115.241 68.56C115.07 68.176 114.761 67.984 114.313 67.984C113.63 67.984 113.022 68.432 112.489 69.328C111.977 70.224 111.721 71.312 111.721 72.592L111.721 81.424L113.097 81.424L113.097 82L104.009 82L104.009 81.424L105.769 81.424L105.769 67.344L104.009 67.344L104.009 66.768Z" fill="#00B4C5"/>
<circle cx="178" cy="59" r="35" fill="#FFE600"/>
<path d="M131.5 33.5L131.682 29.8617L127.351 29.6452L127.885 33.9482L131.5 33.5ZM127.744 100.046L126.033 103.262L127.752 104.176L129.467 103.255L127.744 100.046ZM99.9816 98.4053L98.687 101.81L99.9816 98.4053ZM92.7773 93.0426L95.4031 90.5176L93.7964 88.8467L91.6022 89.5945L92.7773 93.0426ZM197.803 104.447L197.843 100.804L197.581 100.801L197.321 100.836L197.803 104.447ZM215.03 89.2112L218.6 89.9372L215.03 89.2112ZM206.361 67.3597L207.765 63.9985L204.739 62.7338L203.165 65.6119L206.361 67.3597ZM167.644 84.0656L164.18 85.1938L164.267 85.4603L164.393 85.7103L167.644 84.0656ZM173.905 54.1157L176.358 51.4231L171.644 47.1271L170.339 53.3703L173.905 54.1157ZM190.41 57.7631C191.61 56.1482 191.273 53.8663 189.658 52.6664C188.043 51.4665 185.761 51.8028 184.562 53.4177L190.41 57.7631ZM192.867 73.0721C191.417 71.6769 189.111 71.721 187.716 73.1705C186.321 74.62 186.365 76.9261 187.814 78.3213L192.867 73.0721ZM114.753 93.1387L116.463 89.9222L113.193 88.1836L111.508 91.4819L114.753 93.1387ZM84.4677 92.026L81.0196 93.2012L83.3699 100.097L86.818 98.9223L84.4677 92.026ZM127.885 33.9482C131.613 64.0233 130.628 80.209 128.867 88.7226C127.99 92.9604 126.946 95.1778 126.29 96.2353C125.965 96.7592 125.739 96.9922 125.68 97.0491C125.65 97.0779 125.66 97.0651 125.715 97.0243C125.743 97.004 125.782 96.9771 125.833 96.9451C125.858 96.9292 125.886 96.912 125.917 96.8938C125.933 96.8847 125.949 96.8754 125.966 96.8658C125.975 96.861 125.984 96.8562 125.993 96.8513C125.997 96.8488 126.004 96.8451 126.006 96.8439C126.013 96.8402 126.02 96.8365 127.744 100.046C129.467 103.255 129.474 103.251 129.481 103.247C129.484 103.246 129.491 103.242 129.496 103.24C129.505 103.234 129.515 103.229 129.525 103.223C129.545 103.212 129.565 103.201 129.586 103.188C129.628 103.164 129.672 103.137 129.719 103.108C129.811 103.049 129.913 102.981 130.021 102.902C130.238 102.743 130.482 102.541 130.745 102.286C131.272 101.776 131.868 101.064 132.481 100.076C133.701 98.1095 135.001 95.0342 136.002 90.1981C137.994 80.5639 138.887 63.4767 135.115 33.0518L127.885 33.9482ZM101.276 95.0002C100.284 94.6229 98.883 93.6388 97.5276 92.4875C96.8989 91.9533 96.3572 91.4505 95.9737 91.0818C95.783 90.8984 95.6338 90.7506 95.5353 90.6517C95.4861 90.6023 95.4497 90.5653 95.4272 90.5424C95.416 90.5309 95.4083 90.523 95.4042 90.5188C95.4022 90.5167 95.4011 90.5155 95.4009 90.5153C95.4008 90.5152 95.4009 90.5154 95.4013 90.5157C95.4015 90.5159 95.4017 90.5162 95.402 90.5165C95.4022 90.5167 95.4025 90.5169 95.4025 90.517C95.4028 90.5173 95.4031 90.5176 92.7773 93.0426C90.1516 95.5676 90.1519 95.568 90.1522 95.5683C90.1524 95.5685 90.1527 95.5689 90.153 95.5692C90.1536 95.5697 90.1542 95.5704 90.1548 95.571C90.1562 95.5724 90.1578 95.5741 90.1596 95.576C90.1632 95.5798 90.1679 95.5846 90.1735 95.5903C90.1846 95.6018 90.1997 95.6173 90.2184 95.6364C90.2557 95.6746 90.308 95.7277 90.3738 95.7938C90.5054 95.9258 90.6921 96.1107 90.9246 96.3342C91.3876 96.7793 92.0418 97.387 92.8107 98.0401C94.2506 99.2633 96.4518 100.961 98.687 101.81L101.276 95.0002ZM197.803 104.447C197.762 108.09 197.764 108.09 197.766 108.09C197.767 108.09 197.769 108.09 197.771 108.09C197.774 108.09 197.777 108.09 197.781 108.09C197.788 108.09 197.796 108.09 197.804 108.09C197.822 108.09 197.843 108.09 197.867 108.09C197.916 108.089 197.978 108.089 198.053 108.087C198.204 108.083 198.406 108.075 198.654 108.059C199.149 108.026 199.831 107.96 200.647 107.825C202.27 107.558 204.479 107.012 206.823 105.884C211.639 103.565 216.782 98.8798 218.6 89.9372L211.461 88.4852C210.149 94.9349 206.678 97.8675 203.663 99.3188C202.09 100.076 200.58 100.452 199.462 100.637C198.908 100.728 198.464 100.77 198.175 100.789C198.032 100.798 197.928 100.802 197.871 100.803C197.842 100.804 197.825 100.804 197.82 100.804C197.817 100.804 197.818 100.804 197.822 100.804C197.824 100.804 197.827 100.804 197.83 100.804C197.832 100.804 197.834 100.804 197.836 100.804C197.837 100.804 197.839 100.804 197.84 100.804C197.841 100.804 197.843 100.804 197.803 104.447ZM218.6 89.9372C220.517 80.5109 218.109 73.9687 214.861 69.7597C213.283 67.7138 211.574 66.3054 210.248 65.4012C209.582 64.9476 209.005 64.6151 208.574 64.3878C208.358 64.274 208.179 64.186 208.042 64.1219C207.973 64.0898 207.915 64.0636 207.869 64.0431C207.846 64.0329 207.826 64.0241 207.808 64.0166C207.8 64.0129 207.792 64.0096 207.785 64.0065C207.781 64.005 207.778 64.0036 207.774 64.0022C207.773 64.0016 207.771 64.0006 207.77 64.0003C207.768 63.9994 207.765 63.9985 206.361 67.3597C204.957 70.7209 204.955 70.7201 204.953 70.7192C204.952 70.719 204.95 70.7181 204.949 70.7176C204.946 70.7166 204.944 70.7156 204.942 70.7147C204.938 70.7129 204.934 70.7114 204.931 70.7102C204.926 70.7078 204.923 70.7064 204.922 70.7063C204.921 70.7059 204.931 70.7102 204.95 70.7192C204.989 70.7372 205.065 70.7741 205.173 70.8312C205.39 70.9457 205.73 71.139 206.144 71.4214C206.977 71.9891 208.077 72.8934 209.093 74.2102C211.034 76.7265 212.961 81.1102 211.461 88.4852L218.6 89.9372ZM131.318 37.1383C134.856 37.3152 138.77 39.7142 142.882 44.2651C146.912 48.725 150.639 54.7086 153.843 60.844C157.031 66.9492 159.621 73.0475 161.417 77.6338C162.313 79.9226 163.008 81.8247 163.477 83.1496C163.712 83.8119 163.889 84.3293 164.008 84.6781C164.067 84.8524 164.111 84.9846 164.14 85.0716C164.154 85.115 164.165 85.1472 164.172 85.1677C164.175 85.178 164.177 85.1853 164.179 85.1897C164.179 85.1918 164.18 85.1933 164.18 85.194C164.18 85.1943 164.18 85.1943 164.18 85.1945C164.18 85.1942 164.18 85.1938 167.644 84.0656C171.108 82.9375 171.107 82.9367 171.107 82.9357C171.107 82.9351 171.106 82.9339 171.106 82.9328C171.105 82.9304 171.104 82.9274 171.103 82.9235C171.101 82.9159 171.097 82.9053 171.093 82.8917C171.084 82.8645 171.071 82.8256 171.054 82.7753C171.021 82.6746 170.972 82.5283 170.908 82.3394C170.78 81.9616 170.591 81.4132 170.345 80.7182C169.853 79.3286 169.13 77.3505 168.201 74.9769C166.345 70.2384 163.649 63.8829 160.301 57.4716C156.969 51.0907 152.91 44.4953 148.288 39.3804C143.748 34.3565 138.144 30.1848 131.682 29.8617L131.318 37.1383ZM164.393 85.7103C170.6 97.9766 178.859 103.699 185.806 106.249C189.235 107.509 192.273 107.97 194.482 108.113C195.588 108.184 196.491 108.177 197.14 108.148C197.465 108.134 197.727 108.115 197.92 108.097C198.016 108.088 198.095 108.08 198.156 108.073C198.187 108.07 198.213 108.067 198.234 108.064C198.245 108.063 198.255 108.062 198.263 108.061C198.267 108.06 198.271 108.06 198.275 108.059C198.277 108.059 198.279 108.059 198.28 108.058C198.282 108.058 198.285 108.058 197.803 104.447C197.321 100.836 197.323 100.836 197.325 100.836C197.326 100.835 197.328 100.835 197.329 100.835C197.332 100.835 197.334 100.834 197.336 100.834C197.34 100.834 197.343 100.833 197.344 100.833C197.348 100.833 197.347 100.833 197.342 100.833C197.332 100.834 197.305 100.837 197.263 100.841C197.177 100.849 197.029 100.861 196.822 100.87C196.41 100.888 195.771 100.895 194.953 100.842C193.314 100.736 190.981 100.388 188.317 99.4101C183.076 97.4857 176.256 93.0172 170.894 82.4209L164.393 85.7103ZM171.21 84.811L177.47 54.8611L170.339 53.3703L164.078 83.3202L171.21 84.811ZM171.451 56.8083C173.879 59.021 177.074 60.8812 180.395 61.472C183.856 62.0877 187.771 61.3139 190.41 57.7631L184.562 53.4177C183.981 54.1987 183.166 54.5648 181.671 54.2989C180.037 54.0081 178.051 52.9651 176.358 51.4231L171.451 56.8083ZM206.361 67.3597C203.165 65.6119 203.165 65.6111 203.166 65.6103C203.166 65.6102 203.166 65.6094 203.166 65.6091C203.167 65.6084 203.167 65.6079 203.167 65.6076C203.167 65.6071 203.167 65.6075 203.167 65.6088C203.165 65.6114 203.162 65.6176 203.156 65.6271C203.146 65.6463 203.127 65.6792 203.101 65.7246C203.049 65.8155 202.968 65.9561 202.859 66.1373C202.64 66.5008 202.315 67.0224 201.901 67.6307C201.06 68.8675 199.917 70.3701 198.625 71.6295C197.277 72.9427 196.08 73.6816 195.165 73.9001C194.555 74.0458 193.877 74.0447 192.867 73.0721L187.814 78.3213C190.559 80.9627 193.76 81.7264 196.858 80.9865C199.651 80.3194 201.99 78.5223 203.709 76.8478C205.483 75.1194 206.937 73.1825 207.926 71.7269C208.428 70.9889 208.826 70.351 209.103 69.8914C209.241 69.6612 209.35 69.4745 209.426 69.3409C209.464 69.274 209.494 69.2204 209.516 69.1811C209.527 69.1615 209.536 69.1454 209.543 69.1331C209.547 69.1269 209.549 69.1217 209.552 69.1174C209.553 69.1153 209.554 69.1134 209.555 69.1117C209.555 69.1109 209.556 69.1098 209.556 69.1094C209.557 69.1084 209.557 69.1075 206.361 67.3597ZM129.454 96.8292L116.463 89.9222L113.042 96.3552L126.033 103.262L129.454 96.8292ZM114.753 93.1387C111.508 91.4819 111.509 91.4803 111.51 91.4787C111.51 91.4782 111.511 91.4766 111.511 91.4756C111.512 91.4737 111.513 91.4718 111.514 91.4701C111.516 91.4667 111.518 91.4639 111.519 91.4615C111.521 91.4568 111.523 91.454 111.523 91.4532C111.524 91.4517 111.521 91.4579 111.513 91.4711C111.499 91.4977 111.468 91.5521 111.421 91.6295C111.326 91.7852 111.169 92.0279 110.951 92.3199C110.506 92.914 109.85 93.6526 108.994 94.2865C107.425 95.4474 105.024 96.4249 101.276 95.0002L98.687 101.81C105.057 104.232 110.04 102.576 113.328 100.142C114.9 98.9788 116.04 97.6795 116.784 96.6851C117.16 96.1828 117.446 95.7437 117.645 95.416C117.745 95.2517 117.824 95.1141 117.882 95.0091C117.912 94.9565 117.936 94.912 117.955 94.8762C117.964 94.8583 117.972 94.8425 117.98 94.829C117.983 94.8223 117.986 94.8161 117.989 94.8105C117.991 94.8077 117.992 94.8051 117.993 94.8026C117.994 94.8013 117.995 94.7995 117.995 94.7989C117.996 94.7972 117.997 94.7955 114.753 93.1387ZM91.6022 89.5945L84.4677 92.026L86.818 98.9223L93.9525 96.4907L91.6022 89.5945Z" fill="#12607D"/>
<path d="M222.943 65.8215C216.973 67.4181 216.049 71.1128 216.367 72.6005C219.978 65.571 223.925 72.7415 227.889 68.0929C230.357 65.1992 229.337 63.4499 229.337 63.4499C229.337 63.4499 228.774 64.2621 222.943 65.8215Z" fill="#12607D"/>
<path d="M215.97 61.8332C214.057 66.8641 215.541 71.6323 216.367 72.6005C214.405 65.1002 221.386 64.2274 221.437 59.4026C221.487 54.668 217.358 53.542 217.358 53.542C217.358 53.542 218 56.4908 215.97 61.8332Z" fill="#12607D"/>
</svg>
