<svg width="223" height="54" viewBox="0 0 223 54" fill="none" xmlns="http://www.w3.org/2000/svg">
<path d="M0.48 22.96H10.12V26.64C10.5467 25.4133 11.2 24.4267 12.08 23.68C12.96 22.9333 14.2933 22.56 16.08 22.56C20.2133 22.56 22.28 24.7867 22.28 29.24V41.28H24.52V42H13.2V41.28H14.84V28.28C14.84 26.68 14.7333 25.6533 14.52 25.2C14.3067 24.72 13.92 24.48 13.36 24.48C12.5067 24.48 11.7467 25.04 11.08 26.16C10.44 27.28 10.12 28.64 10.12 30.24V41.28H11.84V42H0.48V41.28H2.68V23.68H0.48V22.96ZM35.5684 42.4C32.1284 42.4 29.5418 41.52 27.8084 39.76C26.1018 37.9733 25.2484 35.5067 25.2484 32.36C25.2484 29.1867 26.2084 26.76 28.1284 25.08C30.0751 23.4 32.5418 22.56 35.5284 22.56C41.5818 22.56 44.4884 25.6 44.2484 31.68H32.9684V33.24C32.9684 35.8533 33.3018 37.8267 33.9684 39.16C34.6351 40.4933 35.7951 41.16 37.4484 41.16C40.5418 41.16 42.5684 39.5067 43.5284 36.2L44.2484 36.32C43.7418 38.24 42.8218 39.7333 41.4884 40.8C40.1818 41.8667 38.2084 42.4 35.5684 42.4ZM33.0084 30.88H37.1284V28.92C37.1284 26.76 36.9951 25.2933 36.7284 24.52C36.4884 23.72 35.9818 23.32 35.2084 23.32C34.4618 23.32 33.9018 23.7467 33.5284 24.6C33.1818 25.4267 33.0084 26.8667 33.0084 28.92V30.88ZM59.0334 24.08C58.0468 24.08 57.1801 24.72 56.4334 26C55.6868 27.28 55.3134 28.8 55.3134 30.56V41.28H58.1534V42H45.6734V41.28H47.8734V23.68H45.6734V22.96H55.3134V26.8C55.6601 25.44 56.3268 24.4 57.3134 23.68C58.3001 22.9333 59.4201 22.56 60.6734 22.56C61.9268 22.56 62.9401 22.92 63.7134 23.64C64.5134 24.3333 64.9134 25.3333 64.9134 26.64C64.9134 27.92 64.6201 28.9067 64.0334 29.6C63.4468 30.2933 62.5401 30.64 61.3134 30.64C60.1134 30.64 59.2201 30.24 58.6334 29.44C58.0734 28.64 58.0068 27.5333 58.4334 26.12H59.8734C60.5401 24.76 60.2601 24.08 59.0334 24.08ZM78.2028 34.12V30.72C78.2028 28.1333 78.0561 26.2533 77.7628 25.08C77.4961 23.88 76.8561 23.28 75.8428 23.28C75.2561 23.28 74.7761 23.4533 74.4028 23.8C74.0561 24.12 73.8028 24.6667 73.6428 25.44C73.4028 26.64 73.2828 28.4667 73.2828 30.92V34.04C73.2828 36.9467 73.3628 38.6933 73.5228 39.28C73.7095 39.8667 73.8961 40.3467 74.0828 40.72C74.3761 41.36 74.9495 41.68 75.8028 41.68C76.8428 41.68 77.5228 41.08 77.8428 39.88C78.0828 39.0267 78.2028 37.1067 78.2028 34.12ZM75.7228 42.4C72.3895 42.4 69.8695 41.5467 68.1628 39.84C66.4561 38.1333 65.6028 35.6933 65.6028 32.52C65.6028 29.32 66.5095 26.8667 68.3228 25.16C70.1628 23.4267 72.7361 22.56 76.0428 22.56C79.3495 22.56 81.8161 23.36 83.4428 24.96C85.0695 26.5333 85.8828 28.9467 85.8828 32.2C85.8828 39 82.4961 42.4 75.7228 42.4Z" fill="#1C7833"/>
<path d="M108.629 20.88L109.749 20.2C109.909 19.3733 109.589 18.96 108.789 18.96C107.642 18.96 107.069 19.84 107.069 21.6C107.069 22.2933 107.162 23.0933 107.349 24C109.376 25.36 110.389 27.1067 110.389 29.24C110.389 31.3467 109.656 32.9867 108.189 34.16C106.722 35.3333 104.736 35.92 102.229 35.92C101.189 35.92 100.109 35.8133 98.9891 35.6C97.8157 36.3467 97.2291 36.9067 97.2291 37.28C97.2291 37.6533 98.0824 37.84 99.7891 37.84H103.869C109.922 37.84 112.949 40.0133 112.949 44.36C112.949 46.7067 112.029 48.56 110.189 49.92C108.376 51.3067 105.536 52 101.669 52C95.0824 52 91.7891 50.5733 91.7891 47.72C91.7891 46.1733 92.8157 45.1067 94.8691 44.52L97.2691 45.6C97.0557 46.3733 96.9491 47.1067 96.9491 47.8C96.9491 50.0933 98.6557 51.24 102.069 51.24C104.149 51.24 105.749 50.8533 106.869 50.08C107.989 49.3067 108.549 48.3467 108.549 47.2C108.549 46.0533 108.202 45.28 107.509 44.88C106.842 44.5067 105.496 44.32 103.469 44.32H99.5891C97.4291 44.32 95.8824 43.96 94.9491 43.24C94.0157 42.52 93.5491 41.64 93.5491 40.6C93.5491 39.5333 93.8824 38.6533 94.5491 37.96C95.2157 37.24 96.4024 36.36 98.1091 35.32C95.0157 34.44 93.4691 32.4133 93.4691 29.24C93.4691 27.24 94.1891 25.6267 95.6291 24.4C97.0691 23.1733 99.2291 22.56 102.109 22.56C103.842 22.56 105.322 22.8933 106.549 23.56C106.389 22.84 106.309 22.1867 106.309 21.6C106.309 20.1067 106.709 19.0267 107.509 18.36C108.309 17.6933 109.202 17.36 110.189 17.36C111.176 17.36 111.962 17.6267 112.549 18.16C113.162 18.6667 113.469 19.3733 113.469 20.28C113.469 21.1867 113.229 21.8667 112.749 22.32C112.269 22.7467 111.682 22.96 110.989 22.96C110.322 22.96 109.762 22.7867 109.309 22.44C108.882 22.0667 108.656 21.5467 108.629 20.88ZM100.149 28.36V30.52C100.149 32.3067 100.296 33.52 100.589 34.16C100.909 34.8 101.376 35.12 101.989 35.12C102.629 35.12 103.082 34.8133 103.349 34.2C103.642 33.56 103.789 32.2667 103.789 30.32V28.36C103.789 26.28 103.656 24.92 103.389 24.28C103.122 23.6133 102.669 23.28 102.029 23.28C101.416 23.28 100.949 23.6267 100.629 24.32C100.309 24.9867 100.149 26.3333 100.149 28.36ZM122.072 32.6H123.232V29.52C123.232 26.9867 123.085 25.2933 122.792 24.44C122.525 23.56 121.992 23.12 121.192 23.12C120.712 23.12 120.272 23.2533 119.872 23.52C119.499 23.76 119.312 24.1067 119.312 24.56C119.312 24.9867 119.392 25.4267 119.552 25.88H120.552C120.765 26.44 120.872 27.12 120.872 27.92C120.872 28.6933 120.539 29.3733 119.872 29.96C119.205 30.52 118.365 30.8 117.352 30.8C115.059 30.8 113.912 29.6933 113.912 27.48C113.912 24.2 116.699 22.56 122.272 22.56C125.445 22.56 127.632 23.1067 128.832 24.2C130.059 25.2667 130.672 27.24 130.672 30.12V38.24C130.672 39.6267 131.059 40.32 131.832 40.32C132.739 40.32 133.272 38.9467 133.432 36.2L134.032 36.24C133.925 38.5867 133.485 40.2 132.712 41.08C131.939 41.96 130.672 42.4 128.912 42.4C125.712 42.4 123.872 41.4133 123.392 39.44C123.045 40.4533 122.525 41.2 121.832 41.68C121.139 42.16 120.125 42.4 118.792 42.4C114.845 42.4 112.872 40.7867 112.872 37.56C112.872 35.6667 113.619 34.3733 115.112 33.68C116.632 32.96 118.952 32.6 122.072 32.6ZM120.472 37.52C120.472 38.9067 120.539 39.8 120.672 40.2C120.832 40.6 121.112 40.8 121.512 40.8C121.939 40.8 122.325 40.4667 122.672 39.8C123.045 39.1067 123.232 38.16 123.232 36.96V33.24H122.952C121.299 33.24 120.472 34.4533 120.472 36.88V37.52ZM147.785 24.08C146.798 24.08 145.932 24.72 145.185 26C144.438 27.28 144.065 28.8 144.065 30.56V41.28H146.905V42H134.425V41.28H136.625V23.68H134.425V22.96H144.065V26.8C144.412 25.44 145.078 24.4 146.065 23.68C147.052 22.9333 148.172 22.56 149.425 22.56C150.678 22.56 151.692 22.92 152.465 23.64C153.265 24.3333 153.665 25.3333 153.665 26.64C153.665 27.92 153.372 28.9067 152.785 29.6C152.198 30.2933 151.292 30.64 150.065 30.64C148.865 30.64 147.972 30.24 147.385 29.44C146.825 28.64 146.758 27.5333 147.185 26.12H148.625C149.292 24.76 149.012 24.08 147.785 24.08ZM162.35 33.72C162.35 36.52 162.496 38.3867 162.79 39.32C163.083 40.2267 163.616 40.68 164.39 40.68C165.19 40.68 165.87 40.3333 166.43 39.64C167.016 38.9467 167.31 37.92 167.31 36.56V27.84C167.31 26.6933 167.083 25.72 166.63 24.92C166.176 24.12 165.51 23.72 164.63 23.72C163.75 23.72 163.15 24.3067 162.83 25.48C162.51 26.6533 162.35 28.7067 162.35 31.64V33.72ZM167.83 42L167.39 39.2C166.483 41.3333 164.643 42.4 161.87 42.4C159.576 42.4 157.79 41.5733 156.51 39.92C155.256 38.2667 154.63 35.8 154.63 32.52C154.63 25.88 157.27 22.56 162.55 22.56C164.896 22.56 166.443 23.2133 167.19 24.52V12.72H164.75V12H174.75V41.28H176.71V42H167.83ZM188.265 42.4C184.825 42.4 182.239 41.52 180.505 39.76C178.799 37.9733 177.945 35.5067 177.945 32.36C177.945 29.1867 178.905 26.76 180.825 25.08C182.772 23.4 185.239 22.56 188.225 22.56C194.279 22.56 197.185 25.6 196.945 31.68H185.665V33.24C185.665 35.8533 185.999 37.8267 186.665 39.16C187.332 40.4933 188.492 41.16 190.145 41.16C193.239 41.16 195.265 39.5067 196.225 36.2L196.945 36.32C196.439 38.24 195.519 39.7333 194.185 40.8C192.879 41.8667 190.905 42.4 188.265 42.4ZM185.705 30.88H189.825V28.92C189.825 26.76 189.692 25.2933 189.425 24.52C189.185 23.72 188.679 23.32 187.905 23.32C187.159 23.32 186.599 23.7467 186.225 24.6C185.879 25.4267 185.705 26.8667 185.705 28.92V30.88ZM198.45 22.96H208.09V26.64C208.517 25.4133 209.17 24.4267 210.05 23.68C210.93 22.9333 212.264 22.56 214.05 22.56C218.184 22.56 220.25 24.7867 220.25 29.24V41.28H222.49V42H211.17V41.28H212.81V28.28C212.81 26.68 212.704 25.6533 212.49 25.2C212.277 24.72 211.89 24.48 211.33 24.48C210.477 24.48 209.717 25.04 209.05 26.16C208.41 27.28 208.09 28.64 208.09 30.24V41.28H209.81V42H198.45V41.28H200.65V23.68H198.45V22.96Z" fill="#28B04A"/>
</svg>
