<svg width="243" height="48" viewBox="0 0 243 48" fill="none" xmlns="http://www.w3.org/2000/svg">
<path d="M113.758 46.1055C108.172 46.1055 104.52 43.7422 104.168 39.9141H109.383C109.754 41.3008 111.473 42.1797 113.836 42.1797C116.941 42.1797 118.582 40.7734 118.582 38.0781V33.8398H118.172C117.508 36.2617 115.008 37.8828 111.805 37.8828C106.844 37.8828 103.875 34.4453 103.875 28.625V25.3633C103.875 19.4844 106.902 16.1055 112.059 16.1055C115.184 16.1055 117.586 17.6875 118.289 20.1289H118.68V16.457H123.934V37.9805C123.934 43 120.047 46.1055 113.758 46.1055ZM109.344 28.4688C109.344 31.3984 111.121 33.2344 113.914 33.2344C116.727 33.2344 118.504 31.3984 118.504 28.4688V25.3633C118.504 22.4336 116.727 20.5977 113.914 20.5977C111.121 20.5977 109.344 22.4531 109.344 25.3633V28.4688ZM134.58 38.3516C130.517 38.3516 127.783 35.7344 127.783 31.8477C127.783 27.9609 130.615 25.6758 135.927 25.3047L140.966 24.9922V23.2734C140.966 21.3984 139.677 20.3047 137.47 20.3047C135.615 20.3047 134.228 21.125 133.779 22.4727H128.584C128.974 18.5664 132.509 16.0469 137.627 16.0469C143.154 16.0469 146.259 18.6836 146.259 23.3906V38H141.181V35.1289H140.712C139.658 37.1602 137.392 38.3516 134.58 38.3516ZM136.416 34.0742C139.072 34.0742 140.966 32.3945 140.966 29.9922V28.4297L136.826 28.6836C134.326 28.8398 133.056 29.7969 133.056 31.457C133.056 33.0586 134.345 34.0742 136.416 34.0742ZM160.206 28.4492V34.0742H166.456V38H150.987V34.0742H155.089V20.4023H150.597V16.457H160.245V21.9844H161.085C162.023 17.707 164.23 15.8906 168.292 15.8906C169.503 15.8906 170.597 16.0469 171.359 16.3398V22.1406C170.382 21.7695 168.976 21.5156 167.765 21.5156C162.687 21.5156 160.206 23.8203 160.206 28.4492ZM181.36 38.332C176.438 38.332 173.509 34.9336 173.509 29.0742V25.3633C173.509 19.5039 176.438 16.1055 181.36 16.1055C184.466 16.1055 186.614 17.5508 187.337 20.1289H187.727V8.25391H193.313V38H187.805V34.2891H187.395C186.653 36.9062 184.524 38.332 181.36 38.332ZM183.43 33.7031C186.184 33.7031 187.864 31.8867 187.864 28.918V25.3633C187.864 22.3945 186.184 20.5977 183.43 20.5977C180.657 20.5977 178.958 22.3945 178.958 25.3633V28.918C178.958 31.8867 180.657 33.7031 183.43 33.7031ZM211.537 31.9453H216.577C216.127 35.7539 212.319 38.4688 207.319 38.4688C201.049 38.4688 197.455 34.9531 197.455 28.8398V25.3828C197.455 19.7383 201.362 16.0078 207.221 16.0078C212.924 16.0078 216.577 19.7578 216.577 25.5391V28.5078H202.69V29.6797C202.69 32.4922 204.506 34.3281 207.299 34.3281C209.448 34.3281 211.147 33.3516 211.537 31.9453ZM207.123 20.1484C204.35 20.1484 202.69 22.0039 202.69 25.0898H211.42C211.42 22.0039 209.819 20.1484 207.123 20.1484ZM220.406 38V16.457H225.582V20.0703H225.914C226.969 17.4727 229.293 16.0078 232.398 16.0078C237.086 16.0078 239.586 18.8203 239.586 24.0742V38H234.234V25.3438C234.234 22.1797 232.965 20.6758 230.25 20.6758C227.516 20.6758 225.738 22.5703 225.738 25.5586V38H220.406Z" fill="#28B04A"/>
<path d="M2.77344 38V16.457H7.94922V20.0703H8.28125C9.33594 17.4727 11.6602 16.0078 14.7656 16.0078C19.4531 16.0078 21.9531 18.8203 21.9531 24.0742V38H16.6016V25.3438C16.6016 22.1797 15.332 20.6758 12.6172 20.6758C9.88281 20.6758 8.10547 22.5703 8.10547 25.5586V38H2.77344ZM40.1578 31.9453H45.1969C44.7477 35.7539 40.9391 38.4688 35.9391 38.4688C29.6695 38.4688 26.0758 34.9531 26.0758 28.8398V25.3828C26.0758 19.7383 29.982 16.0078 35.8414 16.0078C41.5445 16.0078 45.1969 19.7578 45.1969 25.5391V28.5078H31.3102V29.6797C31.3102 32.4922 33.1266 34.3281 35.9195 34.3281C38.068 34.3281 39.7672 33.3516 40.1578 31.9453ZM35.7437 20.1484C32.9703 20.1484 31.3102 22.0039 31.3102 25.0898H40.0406C40.0406 22.0039 38.4391 20.1484 35.7437 20.1484ZM58.2062 28.4492V34.0742H64.4562V38H48.9875V34.0742H53.0891V20.4023H48.5969V16.457H58.2453V21.9844H59.0852C60.0227 17.707 62.2297 15.8906 66.2922 15.8906C67.5031 15.8906 68.5969 16.0469 69.3586 16.3398V22.1406C68.382 21.7695 66.9758 21.5156 65.7648 21.5156C60.6867 21.5156 58.2062 23.8203 58.2062 28.4492ZM81.743 38.4688C75.6687 38.4688 71.8406 34.7773 71.8406 28.8984V25.5781C71.8406 19.6992 75.6687 16.0078 81.743 16.0078C87.8172 16.0078 91.6453 19.6992 91.6453 25.5781V28.8984C91.6453 34.7773 87.8172 38.4688 81.743 38.4688ZM81.743 20.3828C78.8719 20.3828 77.0945 22.4531 77.0945 25.793V28.6836C77.0945 32.0039 78.8719 34.0938 81.743 34.0938C84.6141 34.0938 86.3914 32.0039 86.3914 28.6836V25.793C86.3914 22.4531 84.6141 20.3828 81.743 20.3828Z" fill="#1C7833"/>
</svg>
