<svg width="218" height="54" viewBox="0 0 218 54" fill="none" xmlns="http://www.w3.org/2000/svg">
<path d="M0.48 22.96H10.12V26.64C10.5467 25.4133 11.2 24.4267 12.08 23.68C12.96 22.9333 14.2933 22.56 16.08 22.56C20.2133 22.56 22.28 24.7867 22.28 29.24V41.28H24.52V42H13.2V41.28H14.84V28.28C14.84 26.68 14.7333 25.6533 14.52 25.2C14.3067 24.72 13.92 24.48 13.36 24.48C12.5067 24.48 11.7467 25.04 11.08 26.16C10.44 27.28 10.12 28.64 10.12 30.24V41.28H11.84V42H0.48V41.28H2.68V23.68H0.48V22.96ZM35.5684 42.4C32.1284 42.4 29.5418 41.52 27.8084 39.76C26.1018 37.9733 25.2484 35.5067 25.2484 32.36C25.2484 29.1867 26.2084 26.76 28.1284 25.08C30.0751 23.4 32.5418 22.56 35.5284 22.56C41.5818 22.56 44.4884 25.6 44.2484 31.68H32.9684V33.24C32.9684 35.8533 33.3018 37.8267 33.9684 39.16C34.6351 40.4933 35.7951 41.16 37.4484 41.16C40.5418 41.16 42.5684 39.5067 43.5284 36.2L44.2484 36.32C43.7418 38.24 42.8218 39.7333 41.4884 40.8C40.1818 41.8667 38.2084 42.4 35.5684 42.4ZM33.0084 30.88H37.1284V28.92C37.1284 26.76 36.9951 25.2933 36.7284 24.52C36.4884 23.72 35.9818 23.32 35.2084 23.32C34.4618 23.32 33.9018 23.7467 33.5284 24.6C33.1818 25.4267 33.0084 26.8667 33.0084 28.92V30.88ZM59.0334 24.08C58.0468 24.08 57.1801 24.72 56.4334 26C55.6868 27.28 55.3134 28.8 55.3134 30.56V41.28H58.1534V42H45.6734V41.28H47.8734V23.68H45.6734V22.96H55.3134V26.8C55.6601 25.44 56.3268 24.4 57.3134 23.68C58.3001 22.9333 59.4201 22.56 60.6734 22.56C61.9268 22.56 62.9401 22.92 63.7134 23.64C64.5134 24.3333 64.9134 25.3333 64.9134 26.64C64.9134 27.92 64.6201 28.9067 64.0334 29.6C63.4468 30.2933 62.5401 30.64 61.3134 30.64C60.1134 30.64 59.2201 30.24 58.6334 29.44C58.0734 28.64 58.0068 27.5333 58.4334 26.12H59.8734C60.5401 24.76 60.2601 24.08 59.0334 24.08ZM78.2028 34.12V30.72C78.2028 28.1333 78.0561 26.2533 77.7628 25.08C77.4961 23.88 76.8561 23.28 75.8428 23.28C75.2561 23.28 74.7761 23.4533 74.4028 23.8C74.0561 24.12 73.8028 24.6667 73.6428 25.44C73.4028 26.64 73.2828 28.4667 73.2828 30.92V34.04C73.2828 36.9467 73.3628 38.6933 73.5228 39.28C73.7095 39.8667 73.8961 40.3467 74.0828 40.72C74.3761 41.36 74.9495 41.68 75.8028 41.68C76.8428 41.68 77.5228 41.08 77.8428 39.88C78.0828 39.0267 78.2028 37.1067 78.2028 34.12ZM75.7228 42.4C72.3895 42.4 69.8695 41.5467 68.1628 39.84C66.4561 38.1333 65.6028 35.6933 65.6028 32.52C65.6028 29.32 66.5095 26.8667 68.3228 25.16C70.1628 23.4267 72.7361 22.56 76.0428 22.56C79.3495 22.56 81.8161 23.36 83.4428 24.96C85.0695 26.5333 85.8828 28.9467 85.8828 32.2C85.8828 39 82.4961 42.4 75.7228 42.4Z" fill="#1C7833"/>
<path d="M103.042 20.88L104.162 20.2C104.322 19.3733 104.002 18.96 103.202 18.96C102.055 18.96 101.482 19.84 101.482 21.6C101.482 22.2933 101.575 23.0933 101.762 24C103.788 25.36 104.802 27.1067 104.802 29.24C104.802 31.3467 104.068 32.9867 102.602 34.16C101.135 35.3333 99.1482 35.92 96.6416 35.92C95.6016 35.92 94.5216 35.8133 93.4016 35.6C92.2282 36.3467 91.6416 36.9067 91.6416 37.28C91.6416 37.6533 92.4949 37.84 94.2016 37.84H98.2816C104.335 37.84 107.362 40.0133 107.362 44.36C107.362 46.7067 106.442 48.56 104.602 49.92C102.788 51.3067 99.9482 52 96.0816 52C89.4949 52 86.2016 50.5733 86.2016 47.72C86.2016 46.1733 87.2282 45.1067 89.2816 44.52L91.6816 45.6C91.4682 46.3733 91.3616 47.1067 91.3616 47.8C91.3616 50.0933 93.0682 51.24 96.4816 51.24C98.5616 51.24 100.162 50.8533 101.282 50.08C102.402 49.3067 102.962 48.3467 102.962 47.2C102.962 46.0533 102.615 45.28 101.922 44.88C101.255 44.5067 99.9082 44.32 97.8816 44.32H94.0016C91.8416 44.32 90.2949 43.96 89.3616 43.24C88.4282 42.52 87.9616 41.64 87.9616 40.6C87.9616 39.5333 88.2949 38.6533 88.9616 37.96C89.6282 37.24 90.8149 36.36 92.5216 35.32C89.4282 34.44 87.8816 32.4133 87.8816 29.24C87.8816 27.24 88.6016 25.6267 90.0416 24.4C91.4816 23.1733 93.6416 22.56 96.5216 22.56C98.2549 22.56 99.7349 22.8933 100.962 23.56C100.802 22.84 100.722 22.1867 100.722 21.6C100.722 20.1067 101.122 19.0267 101.922 18.36C102.722 17.6933 103.615 17.36 104.602 17.36C105.588 17.36 106.375 17.6267 106.962 18.16C107.575 18.6667 107.882 19.3733 107.882 20.28C107.882 21.1867 107.642 21.8667 107.162 22.32C106.682 22.7467 106.095 22.96 105.402 22.96C104.735 22.96 104.175 22.7867 103.722 22.44C103.295 22.0667 103.068 21.5467 103.042 20.88ZM94.5616 28.36V30.52C94.5616 32.3067 94.7082 33.52 95.0016 34.16C95.3216 34.8 95.7882 35.12 96.4016 35.12C97.0416 35.12 97.4949 34.8133 97.7616 34.2C98.0549 33.56 98.2016 32.2667 98.2016 30.32V28.36C98.2016 26.28 98.0682 24.92 97.8016 24.28C97.5349 23.6133 97.0816 23.28 96.4416 23.28C95.8282 23.28 95.3616 23.6267 95.0416 24.32C94.7216 24.9867 94.5616 26.3333 94.5616 28.36ZM116.484 32.6H117.644V29.52C117.644 26.9867 117.498 25.2933 117.204 24.44C116.938 23.56 116.404 23.12 115.604 23.12C115.124 23.12 114.684 23.2533 114.284 23.52C113.911 23.76 113.724 24.1067 113.724 24.56C113.724 24.9867 113.804 25.4267 113.964 25.88H114.964C115.178 26.44 115.284 27.12 115.284 27.92C115.284 28.6933 114.951 29.3733 114.284 29.96C113.618 30.52 112.778 30.8 111.764 30.8C109.471 30.8 108.324 29.6933 108.324 27.48C108.324 24.2 111.111 22.56 116.684 22.56C119.858 22.56 122.044 23.1067 123.244 24.2C124.471 25.2667 125.084 27.24 125.084 30.12V38.24C125.084 39.6267 125.471 40.32 126.244 40.32C127.151 40.32 127.684 38.9467 127.844 36.2L128.444 36.24C128.338 38.5867 127.898 40.2 127.124 41.08C126.351 41.96 125.084 42.4 123.324 42.4C120.124 42.4 118.284 41.4133 117.804 39.44C117.458 40.4533 116.938 41.2 116.244 41.68C115.551 42.16 114.538 42.4 113.204 42.4C109.258 42.4 107.284 40.7867 107.284 37.56C107.284 35.6667 108.031 34.3733 109.524 33.68C111.044 32.96 113.364 32.6 116.484 32.6ZM114.884 37.52C114.884 38.9067 114.951 39.8 115.084 40.2C115.244 40.6 115.524 40.8 115.924 40.8C116.351 40.8 116.738 40.4667 117.084 39.8C117.458 39.1067 117.644 38.16 117.644 36.96V33.24H117.364C115.711 33.24 114.884 34.4533 114.884 36.88V37.52ZM142.198 24.08C141.211 24.08 140.344 24.72 139.598 26C138.851 27.28 138.478 28.8 138.478 30.56V41.28H141.318V42H128.838V41.28H131.038V23.68H128.838V22.96H138.478V26.8C138.824 25.44 139.491 24.4 140.478 23.68C141.464 22.9333 142.584 22.56 143.838 22.56C145.091 22.56 146.104 22.92 146.878 23.64C147.678 24.3333 148.078 25.3333 148.078 26.64C148.078 27.92 147.784 28.9067 147.198 29.6C146.611 30.2933 145.704 30.64 144.478 30.64C143.278 30.64 142.384 30.24 141.798 29.44C141.238 28.64 141.171 27.5333 141.598 26.12H143.038C143.704 24.76 143.424 24.08 142.198 24.08ZM156.762 33.72C156.762 36.52 156.909 38.3867 157.202 39.32C157.496 40.2267 158.029 40.68 158.802 40.68C159.602 40.68 160.282 40.3333 160.842 39.64C161.429 38.9467 161.722 37.92 161.722 36.56V27.84C161.722 26.6933 161.496 25.72 161.042 24.92C160.589 24.12 159.922 23.72 159.042 23.72C158.162 23.72 157.562 24.3067 157.242 25.48C156.922 26.6533 156.762 28.7067 156.762 31.64V33.72ZM162.242 42L161.802 39.2C160.896 41.3333 159.056 42.4 156.282 42.4C153.989 42.4 152.202 41.5733 150.922 39.92C149.669 38.2667 149.042 35.8 149.042 32.52C149.042 25.88 151.682 22.56 156.962 22.56C159.309 22.56 160.856 23.2133 161.602 24.52V12.72H159.162V12H169.162V41.28H171.122V42H162.242ZM182.678 42.4C179.238 42.4 176.651 41.52 174.918 39.76C173.211 37.9733 172.358 35.5067 172.358 32.36C172.358 29.1867 173.318 26.76 175.238 25.08C177.184 23.4 179.651 22.56 182.638 22.56C188.691 22.56 191.598 25.6 191.358 31.68H180.078V33.24C180.078 35.8533 180.411 37.8267 181.078 39.16C181.744 40.4933 182.904 41.16 184.558 41.16C187.651 41.16 189.678 39.5067 190.638 36.2L191.358 36.32C190.851 38.24 189.931 39.7333 188.598 40.8C187.291 41.8667 185.318 42.4 182.678 42.4ZM180.118 30.88H184.238V28.92C184.238 26.76 184.104 25.2933 183.838 24.52C183.598 23.72 183.091 23.32 182.318 23.32C181.571 23.32 181.011 23.7467 180.638 24.6C180.291 25.4267 180.118 26.8667 180.118 28.92V30.88ZM192.863 22.96H202.503V26.64C202.929 25.4133 203.583 24.4267 204.463 23.68C205.343 22.9333 206.676 22.56 208.463 22.56C212.596 22.56 214.663 24.7867 214.663 29.24V41.28H216.903V42H205.583V41.28H207.223V28.28C207.223 26.68 207.116 25.6533 206.903 25.2C206.689 24.72 206.303 24.48 205.743 24.48C204.889 24.48 204.129 25.04 203.463 26.16C202.823 27.28 202.503 28.64 202.503 30.24V41.28H204.223V42H192.863V41.28H195.063V23.68H192.863V22.96Z" fill="#28B04A"/>
</svg>
