<svg width="232" height="95" viewBox="0 0 232 95" fill="none" xmlns="http://www.w3.org/2000/svg">
<g clip-path="url(#clip0_32_163)">
<path d="M0.666947 13.5444L14.0615 13.5444L14.0615 18.6577C14.6543 16.9533 15.5621 15.5823 16.7848 14.5448C18.0076 13.5074 19.8602 12.9886 22.3427 12.9886C28.0859 12.9886 30.9575 16.0825 30.9575 22.2703L30.9575 38.9996L34.0699 38.9996L34.0699 40L18.3411 40L18.3411 38.9996L20.6198 38.9996L20.6198 20.9364C20.6198 18.7133 20.4716 17.2867 20.1752 16.6568C19.8787 15.9899 19.3415 15.6564 18.5634 15.6564C17.3777 15.6564 16.3217 16.4345 15.3954 17.9907C14.5061 19.5469 14.0615 21.4366 14.0615 23.6598L14.0615 38.9996L16.4514 38.9996L16.4514 40L0.666947 40L0.666947 38.9996L3.72379 38.9996L3.72379 14.5448L0.666947 14.5448L0.666947 13.5444ZM49.4214 40.5558C44.6416 40.5558 41.0475 39.3331 38.6391 36.8876C36.2677 34.4051 35.082 30.9777 35.082 26.6055C35.082 22.1962 36.4159 18.8244 39.0837 16.4901C41.7886 14.1558 45.2159 12.9886 49.3658 12.9886C57.7768 12.9886 61.8155 17.2126 61.482 25.6606L45.8088 25.6606L45.8088 27.8282C45.8088 31.4594 46.2719 34.2013 47.1983 36.0539C48.1246 37.9065 49.7364 38.8328 52.0336 38.8328C56.3317 38.8328 59.1477 36.5356 60.4816 31.9411L61.482 32.1078C60.778 34.7756 59.4997 36.8505 57.6471 38.3326C55.8315 39.8147 53.0896 40.5558 49.4214 40.5558ZM45.8644 24.5491L51.589 24.5491L51.589 21.8257C51.589 18.8244 51.4037 16.7865 51.0332 15.712C50.6997 14.6004 49.9957 14.0446 48.9212 14.0446C47.8837 14.0446 47.1056 14.6375 46.5869 15.8232C46.1052 16.9718 45.8644 18.9726 45.8644 21.8257L45.8644 24.5491ZM82.0254 15.1006C80.6545 15.1006 79.4503 15.9899 78.4128 17.7684C77.3753 19.5469 76.8566 21.6589 76.8566 24.1044L76.8566 38.9996L80.8027 38.9996L80.8027 40L63.462 40L63.462 38.9996L66.5189 38.9996L66.5189 14.5448L63.462 14.5448L63.462 13.5444L76.8566 13.5444L76.8566 18.88C77.3383 16.9903 78.2646 15.5453 79.6355 14.5448C81.0065 13.5074 82.5627 12.9886 84.3041 12.9886C86.0456 12.9886 87.4536 13.4888 88.5281 14.4893C89.6397 15.4526 90.1955 16.8421 90.1955 18.6577C90.1955 20.4362 89.7879 21.8072 88.9728 22.7705C88.1576 23.7339 86.8978 24.2156 85.1934 24.2156C83.526 24.2156 82.2848 23.6598 81.4696 22.5482C80.6915 21.4366 80.5989 19.8989 81.1917 17.9352L83.1926 17.9352C84.1189 16.0455 83.7298 15.1006 82.0254 15.1006ZM108.661 29.0509L108.661 24.3267C108.661 20.7326 108.457 18.1204 108.049 16.4901C107.679 14.8227 106.79 13.9891 105.382 13.9891C104.566 13.9891 103.899 14.2299 103.381 14.7116C102.899 15.1562 102.547 15.9158 102.325 16.9903C101.991 18.6577 101.825 21.1958 101.825 24.6046L101.825 28.9398C101.825 32.9785 101.936 35.4055 102.158 36.2206C102.417 37.0358 102.677 37.7027 102.936 38.2215C103.344 39.1107 104.14 39.5554 105.326 39.5554C106.771 39.5554 107.716 38.7217 108.161 37.0543C108.494 35.8686 108.661 33.2008 108.661 29.0509ZM105.215 40.5558C100.583 40.5558 97.0818 39.3701 94.7104 36.9987C92.3391 34.6274 91.1534 31.2371 91.1534 26.8278C91.1534 22.3815 92.4132 18.9726 94.9328 16.6013C97.4894 14.1928 101.065 12.9886 105.659 12.9886C110.254 12.9886 113.681 14.1002 115.942 16.3234C118.202 18.5095 119.332 21.8627 119.332 26.3832C119.332 35.8316 114.626 40.5558 105.215 40.5558Z" fill="#00B4C5"/>
<path d="M32.152 46.104L33.048 45.56C33.176 44.8987 32.92 44.568 32.28 44.568C31.3627 44.568 30.904 45.272 30.904 46.68C30.904 47.2347 30.9787 47.8747 31.128 48.6C32.7493 49.688 33.56 51.0853 33.56 52.792C33.56 54.4773 32.9733 55.7893 31.8 56.728C30.6267 57.6667 29.0373 58.136 27.032 58.136C26.2 58.136 25.336 58.0507 24.44 57.88C23.5013 58.4773 23.032 58.9253 23.032 59.224C23.032 59.5227 23.7147 59.672 25.08 59.672L28.344 59.672C33.1867 59.672 35.608 61.4107 35.608 64.888C35.608 66.7653 34.872 68.248 33.4 69.336C31.9493 70.4453 29.6773 71 26.584 71C21.3147 71 18.68 69.8587 18.68 67.576C18.68 66.3387 19.5013 65.4853 21.144 65.016L23.064 65.88C22.8933 66.4987 22.808 67.0853 22.808 67.64C22.808 69.4747 24.1733 70.392 26.904 70.392C28.568 70.392 29.848 70.0827 30.744 69.464C31.64 68.8453 32.088 68.0773 32.088 67.16C32.088 66.2427 31.8107 65.624 31.256 65.304C30.7227 65.0053 29.6453 64.856 28.024 64.856L24.92 64.856C23.192 64.856 21.9547 64.568 21.208 63.992C20.4613 63.416 20.088 62.712 20.088 61.88C20.088 61.0267 20.3547 60.3227 20.888 59.768C21.4213 59.192 22.3707 58.488 23.736 57.656C21.2613 56.952 20.024 55.3307 20.024 52.792C20.024 51.192 20.6 49.9013 21.752 48.92C22.904 47.9387 24.632 47.448 26.936 47.448C28.3227 47.448 29.5067 47.7147 30.488 48.248C30.36 47.672 30.296 47.1493 30.296 46.68C30.296 45.4853 30.616 44.6213 31.256 44.088C31.896 43.5547 32.6107 43.288 33.4 43.288C34.1893 43.288 34.8187 43.5013 35.288 43.928C35.7787 44.3333 36.024 44.8987 36.024 45.624C36.024 46.3493 35.832 46.8933 35.448 47.256C35.064 47.5973 34.5947 47.768 34.04 47.768C33.5067 47.768 33.0587 47.6293 32.696 47.352C32.3547 47.0533 32.1733 46.6373 32.152 46.104ZM25.368 52.088L25.368 53.816C25.368 55.2453 25.4853 56.216 25.72 56.728C25.976 57.24 26.3493 57.496 26.84 57.496C27.352 57.496 27.7147 57.2507 27.928 56.76C28.1627 56.248 28.28 55.2133 28.28 53.656L28.28 52.088C28.28 50.424 28.1733 49.336 27.96 48.824C27.7467 48.2907 27.384 48.024 26.872 48.024C26.3813 48.024 26.008 48.3013 25.752 48.856C25.496 49.3893 25.368 50.4667 25.368 52.088ZM42.9062 55.48L43.8343 55.48L43.8343 53.016C43.8343 50.9893 43.7169 49.6347 43.4823 48.952C43.2689 48.248 42.8423 47.896 42.2023 47.896C41.8183 47.896 41.4663 48.0027 41.1463 48.216C40.8476 48.408 40.6983 48.6853 40.6983 49.048C40.6983 49.3893 40.7623 49.7413 40.8903 50.104L41.6903 50.104C41.8609 50.552 41.9463 51.096 41.9463 51.736C41.9463 52.3547 41.6796 52.8987 41.1463 53.368C40.6129 53.816 39.9409 54.04 39.1302 54.04C37.2956 54.04 36.3783 53.1547 36.3783 51.384C36.3783 48.76 38.6076 47.448 43.0663 47.448C45.6049 47.448 47.3543 47.8853 48.3143 48.76C49.2956 49.6133 49.7863 51.192 49.7863 53.496L49.7863 59.992C49.7863 61.1013 50.0956 61.656 50.7143 61.656C51.4396 61.656 51.8663 60.5573 51.9943 58.36L52.4743 58.392C52.3889 60.2693 52.0369 61.56 51.4183 62.264C50.7996 62.968 49.7863 63.32 48.3783 63.32C45.8183 63.32 44.3463 62.5307 43.9623 60.952C43.6849 61.7627 43.2689 62.36 42.7143 62.744C42.1596 63.128 41.3489 63.32 40.2823 63.32C37.1249 63.32 35.5463 62.0293 35.5463 59.448C35.5463 57.9333 36.1436 56.8987 37.3383 56.344C38.5543 55.768 40.4102 55.48 42.9062 55.48ZM41.6263 59.416C41.6263 60.5253 41.6796 61.24 41.7863 61.56C41.9143 61.88 42.1383 62.04 42.4583 62.04C42.7996 62.04 43.1089 61.7733 43.3863 61.24C43.6849 60.6853 43.8343 59.928 43.8343 58.968L43.8343 55.992L43.6103 55.992C42.2876 55.992 41.6263 56.9627 41.6263 58.904L41.6263 59.416ZM63.4768 48.664C62.6874 48.664 61.9941 49.176 61.3968 50.2C60.7994 51.224 60.5008 52.44 60.5008 53.848L60.5008 62.424L62.7728 62.424L62.7728 63L52.7887 63L52.7887 62.424L54.5488 62.424L54.5488 48.344L52.7887 48.344L52.7887 47.768L60.5008 47.768L60.5008 50.84C60.7781 49.752 61.3114 48.92 62.1008 48.344C62.8901 47.7467 63.7861 47.448 64.7888 47.448C65.7914 47.448 66.6021 47.736 67.2208 48.312C67.8608 48.8667 68.1808 49.6667 68.1808 50.712C68.1808 51.736 67.9461 52.5253 67.4768 53.08C67.0074 53.6347 66.2821 53.912 65.3008 53.912C64.3408 53.912 63.6261 53.592 63.1568 52.952C62.7088 52.312 62.6554 51.4267 62.9968 50.296L64.1488 50.296C64.6821 49.208 64.4581 48.664 63.4768 48.664ZM75.1285 56.376C75.1285 58.616 75.2458 60.1093 75.4805 60.856C75.7152 61.5813 76.1418 61.944 76.7605 61.944C77.4005 61.944 77.9445 61.6667 78.3925 61.112C78.8618 60.5573 79.0965 59.736 79.0965 58.648L79.0965 51.672C79.0965 50.7547 78.9152 49.976 78.5525 49.336C78.1898 48.696 77.6565 48.376 76.9525 48.376C76.2485 48.376 75.7685 48.8453 75.5125 49.784C75.2565 50.7227 75.1285 52.3653 75.1285 54.712L75.1285 56.376ZM79.5125 63L79.1605 60.76C78.4352 62.4667 76.9632 63.32 74.7445 63.32C72.9098 63.32 71.4805 62.6587 70.4565 61.336C69.4538 60.0133 68.9525 58.04 68.9525 55.416C68.9525 50.104 71.0645 47.448 75.2885 47.448C77.1658 47.448 78.4032 47.9707 79.0005 49.016L79.0005 39.576L77.0485 39.576L77.0485 39L85.0485 39L85.0485 62.424L86.6165 62.424L86.6165 63L79.5125 63ZM95.861 63.32C93.109 63.32 91.0397 62.616 89.653 61.208C88.2877 59.7787 87.605 57.8053 87.605 55.288C87.605 52.7493 88.373 50.808 89.909 49.464C91.4663 48.12 93.4397 47.448 95.829 47.448C100.672 47.448 102.997 49.88 102.805 54.744L93.781 54.744L93.781 55.992C93.781 58.0827 94.0477 59.6613 94.581 60.728C95.1143 61.7947 96.0423 62.328 97.365 62.328C99.8397 62.328 101.461 61.0053 102.229 58.36L102.805 58.456C102.4 59.992 101.664 61.1867 100.597 62.04C99.5517 62.8933 97.973 63.32 95.861 63.32ZM93.813 54.104L97.109 54.104L97.109 52.536C97.109 50.808 97.0023 49.6347 96.789 49.016C96.597 48.376 96.1917 48.056 95.573 48.056C94.9757 48.056 94.5277 48.3973 94.229 49.08C93.9517 49.7413 93.813 50.8933 93.813 52.536L93.813 54.104ZM104.009 47.768L111.721 47.768L111.721 50.712C112.062 49.7307 112.585 48.9413 113.289 48.344C113.993 47.7467 115.06 47.448 116.489 47.448C119.796 47.448 121.449 49.2293 121.449 52.792L121.449 62.424L123.241 62.424L123.241 63L114.185 63L114.185 62.424L115.497 62.424L115.497 52.024C115.497 50.744 115.412 49.9227 115.241 49.56C115.07 49.176 114.761 48.984 114.313 48.984C113.63 48.984 113.022 49.432 112.489 50.328C111.977 51.224 111.721 52.312 111.721 53.592L111.721 62.424L113.097 62.424L113.097 63L104.009 63L104.009 62.424L105.769 62.424L105.769 48.344L104.009 48.344L104.009 47.768Z" fill="#00B4C5"/>
<circle cx="178" cy="40" r="35" fill="#FFE600"/>
<path d="M131.5 14.5L131.682 10.8617L127.351 10.6452L127.885 14.9482L131.5 14.5ZM127.744 81.0457L126.033 84.2622L127.752 85.1761L129.467 84.255L127.744 81.0457ZM99.9816 79.4053L98.687 82.8103L99.9816 79.4053ZM92.7773 74.0426L95.4031 71.5176L93.7964 69.8467L91.6022 70.5945L92.7773 74.0426ZM197.803 85.4469L197.843 81.8043L197.581 81.8014L197.321 81.8361L197.803 85.4469ZM215.03 70.2112L218.6 70.9372L215.03 70.2112ZM206.361 48.3597L207.765 44.9985L204.739 43.7338L203.165 46.6119L206.361 48.3597ZM167.644 65.0656L164.18 66.1938L164.267 66.4603L164.393 66.7103L167.644 65.0656ZM173.905 35.1157L176.358 32.4231L171.644 28.1271L170.339 34.3703L173.905 35.1157ZM190.41 38.7631C191.61 37.1482 191.273 34.8663 189.658 33.6664C188.043 32.4665 185.761 32.8028 184.562 34.4177L190.41 38.7631ZM192.867 54.0721C191.417 52.6769 189.111 52.721 187.716 54.1705C186.321 55.62 186.365 57.9261 187.814 59.3213L192.867 54.0721ZM114.753 74.1387L116.463 70.9222L113.193 69.1836L111.508 72.4819L114.753 74.1387ZM84.4677 73.026L81.0196 74.2012L83.3699 81.0974L86.818 79.9223L84.4677 73.026ZM127.885 14.9482C131.613 45.0233 130.628 61.209 128.867 69.7226C127.99 73.9604 126.946 76.1778 126.29 77.2353C125.965 77.7592 125.739 77.9922 125.68 78.0491C125.65 78.0779 125.66 78.0651 125.715 78.0243C125.743 78.004 125.782 77.9771 125.833 77.9451C125.858 77.9292 125.886 77.912 125.917 77.8938C125.933 77.8847 125.949 77.8754 125.966 77.8658C125.975 77.861 125.984 77.8562 125.993 77.8513C125.997 77.8488 126.004 77.8451 126.006 77.8439C126.013 77.8402 126.02 77.8365 127.744 81.0457C129.467 84.255 129.474 84.2512 129.481 84.2474C129.484 84.2461 129.491 84.2422 129.496 84.2396C129.505 84.2343 129.515 84.2289 129.525 84.2234C129.545 84.2123 129.565 84.2007 129.586 84.1884C129.628 84.164 129.672 84.1372 129.719 84.108C129.811 84.0494 129.913 83.9812 130.021 83.9018C130.238 83.7429 130.482 83.5411 130.745 83.2865C131.272 82.7764 131.868 82.0644 132.481 81.0762C133.701 79.1095 135.001 76.0342 136.002 71.1981C137.994 61.5639 138.887 44.4767 135.115 14.0518L127.885 14.9482ZM101.276 76.0002C100.284 75.6229 98.883 74.6388 97.5276 73.4875C96.8989 72.9533 96.3572 72.4505 95.9737 72.0818C95.783 71.8984 95.6338 71.7506 95.5353 71.6517C95.4861 71.6023 95.4497 71.5653 95.4272 71.5424C95.416 71.5309 95.4083 71.523 95.4042 71.5188C95.4022 71.5167 95.4011 71.5155 95.4009 71.5153C95.4008 71.5152 95.4009 71.5154 95.4013 71.5157C95.4015 71.5159 95.4017 71.5162 95.402 71.5165C95.4022 71.5167 95.4025 71.5169 95.4025 71.517C95.4028 71.5173 95.4031 71.5176 92.7773 74.0426C90.1516 76.5676 90.1519 76.568 90.1522 76.5683C90.1524 76.5685 90.1527 76.5689 90.153 76.5692C90.1536 76.5697 90.1542 76.5704 90.1548 76.571C90.1562 76.5724 90.1578 76.5741 90.1596 76.576C90.1632 76.5798 90.1679 76.5846 90.1735 76.5903C90.1846 76.6018 90.1997 76.6173 90.2184 76.6364C90.2557 76.6746 90.308 76.7277 90.3738 76.7938C90.5054 76.9258 90.6921 77.1107 90.9246 77.3342C91.3876 77.7793 92.0418 78.387 92.8107 79.0401C94.2506 80.2633 96.4518 81.9605 98.687 82.8103L101.276 76.0002ZM197.803 85.4469C197.762 89.0896 197.764 89.0896 197.766 89.0896C197.767 89.0896 197.769 89.0896 197.771 89.0897C197.774 89.0897 197.777 89.0897 197.781 89.0897C197.788 89.0898 197.796 89.0898 197.804 89.0898C197.822 89.0899 197.843 89.0899 197.867 89.0897C197.916 89.0894 197.978 89.0885 198.053 89.0867C198.204 89.0829 198.406 89.0749 198.654 89.0586C199.149 89.026 199.831 88.9598 200.647 88.8253C202.27 88.5579 204.479 88.0116 206.823 86.8835C211.639 84.5651 216.782 79.8798 218.6 70.9372L211.461 69.4852C210.149 75.9349 206.678 78.8675 203.663 80.3188C202.09 81.0757 200.58 81.4522 199.462 81.6365C198.908 81.7279 198.464 81.7696 198.175 81.7886C198.032 81.7981 197.928 81.8018 197.871 81.8032C197.842 81.804 197.825 81.8041 197.82 81.8041C197.817 81.8042 197.818 81.8041 197.822 81.8041C197.824 81.8042 197.827 81.8042 197.83 81.8042C197.832 81.8042 197.834 81.8042 197.836 81.8042C197.837 81.8042 197.839 81.8043 197.84 81.8043C197.841 81.8043 197.843 81.8043 197.803 85.4469ZM218.6 70.9372C220.517 61.5109 218.109 54.9687 214.861 50.7597C213.283 48.7138 211.574 47.3054 210.248 46.4012C209.582 45.9476 209.005 45.6151 208.574 45.3878C208.358 45.274 208.179 45.186 208.042 45.1219C207.973 45.0898 207.915 45.0636 207.869 45.0431C207.846 45.0329 207.826 45.0241 207.808 45.0166C207.8 45.0129 207.792 45.0096 207.785 45.0065C207.781 45.005 207.778 45.0036 207.774 45.0022C207.773 45.0016 207.771 45.0006 207.77 45.0003C207.768 44.9994 207.765 44.9985 206.361 48.3597C204.957 51.7209 204.955 51.7201 204.953 51.7192C204.952 51.719 204.95 51.7181 204.949 51.7176C204.946 51.7166 204.944 51.7156 204.942 51.7147C204.938 51.7129 204.934 51.7114 204.931 51.7102C204.926 51.7078 204.923 51.7064 204.922 51.7063C204.921 51.7059 204.931 51.7102 204.95 51.7192C204.989 51.7372 205.065 51.7741 205.173 51.8312C205.39 51.9457 205.73 52.139 206.144 52.4214C206.977 52.9891 208.077 53.8934 209.093 55.2102C211.034 57.7265 212.961 62.1102 211.461 69.4852L218.6 70.9372ZM131.318 18.1383C134.856 18.3152 138.77 20.7142 142.882 25.2651C146.912 29.725 150.639 35.7086 153.843 41.844C157.031 47.9492 159.621 54.0475 161.417 58.6338C162.313 60.9226 163.008 62.8247 163.477 64.1496C163.712 64.8119 163.889 65.3293 164.008 65.6781C164.067 65.8524 164.111 65.9846 164.14 66.0716C164.154 66.115 164.165 66.1472 164.172 66.1677C164.175 66.178 164.177 66.1853 164.179 66.1897C164.179 66.1918 164.18 66.1933 164.18 66.194C164.18 66.1943 164.18 66.1943 164.18 66.1945C164.18 66.1942 164.18 66.1938 167.644 65.0656C171.108 63.9375 171.107 63.9367 171.107 63.9357C171.107 63.9351 171.106 63.9339 171.106 63.9328C171.105 63.9304 171.104 63.9274 171.103 63.9235C171.101 63.9159 171.097 63.9053 171.093 63.8917C171.084 63.8645 171.071 63.8256 171.054 63.7753C171.021 63.6746 170.972 63.5283 170.908 63.3394C170.78 62.9616 170.591 62.4132 170.345 61.7182C169.853 60.3286 169.13 58.3505 168.201 55.9769C166.345 51.2384 163.649 44.8829 160.301 38.4716C156.969 32.0907 152.91 25.4953 148.288 20.3804C143.748 15.3565 138.144 11.1848 131.682 10.8617L131.318 18.1383ZM164.393 66.7103C170.6 78.9766 178.859 84.6988 185.806 87.2494C189.235 88.5086 192.273 88.9696 194.482 89.1126C195.588 89.1843 196.491 89.1766 197.14 89.1483C197.465 89.1341 197.727 89.1147 197.92 89.0972C198.016 89.0885 198.095 89.0802 198.156 89.0734C198.187 89.0699 198.213 89.0669 198.234 89.0642C198.245 89.0629 198.255 89.0617 198.263 89.0606C198.267 89.0601 198.271 89.0596 198.275 89.0591C198.277 89.0589 198.279 89.0585 198.28 89.0584C198.282 89.0581 198.285 89.0578 197.803 85.4469C197.321 81.8361 197.323 81.8358 197.325 81.8355C197.326 81.8354 197.328 81.8352 197.329 81.835C197.332 81.8347 197.334 81.8344 197.336 81.8341C197.34 81.8336 197.343 81.8333 197.344 81.8331C197.348 81.8327 197.347 81.8328 197.342 81.8333C197.332 81.8345 197.305 81.8374 197.263 81.8412C197.177 81.849 197.029 81.8605 196.822 81.8695C196.41 81.8875 195.771 81.8952 194.953 81.8422C193.314 81.736 190.981 81.3884 188.317 80.4101C183.076 78.4857 176.256 74.0172 170.894 63.4209L164.393 66.7103ZM171.21 65.811L177.47 35.8611L170.339 34.3703L164.078 64.3202L171.21 65.811ZM171.451 37.8083C173.879 40.021 177.074 41.8812 180.395 42.472C183.856 43.0877 187.771 42.3139 190.41 38.7631L184.562 34.4177C183.981 35.1987 183.166 35.5648 181.671 35.2989C180.037 35.0081 178.051 33.9651 176.358 32.4231L171.451 37.8083ZM206.361 48.3597C203.165 46.6119 203.165 46.6111 203.166 46.6103C203.166 46.6102 203.166 46.6094 203.166 46.6091C203.167 46.6084 203.167 46.6079 203.167 46.6076C203.167 46.6071 203.167 46.6075 203.167 46.6088C203.165 46.6114 203.162 46.6176 203.156 46.6271C203.146 46.6463 203.127 46.6792 203.101 46.7246C203.049 46.8155 202.968 46.9561 202.859 47.1373C202.64 47.5008 202.315 48.0224 201.901 48.6307C201.06 49.8675 199.917 51.3701 198.625 52.6295C197.277 53.9427 196.08 54.6816 195.165 54.9001C194.555 55.0458 193.877 55.0447 192.867 54.0721L187.814 59.3213C190.559 61.9627 193.76 62.7264 196.858 61.9865C199.651 61.3194 201.99 59.5223 203.709 57.8478C205.483 56.1194 206.937 54.1825 207.926 52.7269C208.428 51.9889 208.826 51.351 209.103 50.8914C209.241 50.6612 209.35 50.4745 209.426 50.3409C209.464 50.274 209.494 50.2204 209.516 50.1811C209.527 50.1615 209.536 50.1454 209.543 50.1331C209.547 50.1269 209.549 50.1217 209.552 50.1174C209.553 50.1153 209.554 50.1134 209.555 50.1117C209.555 50.1109 209.556 50.1098 209.556 50.1094C209.557 50.1084 209.557 50.1075 206.361 48.3597ZM129.454 77.8292L116.463 70.9222L113.042 77.3552L126.033 84.2622L129.454 77.8292ZM114.753 74.1387C111.508 72.4819 111.509 72.4803 111.51 72.4787C111.51 72.4782 111.511 72.4766 111.511 72.4756C111.512 72.4737 111.513 72.4718 111.514 72.4701C111.516 72.4667 111.518 72.4639 111.519 72.4615C111.521 72.4568 111.523 72.454 111.523 72.4532C111.524 72.4517 111.521 72.4579 111.513 72.4711C111.499 72.4977 111.468 72.5521 111.421 72.6295C111.326 72.7852 111.169 73.0279 110.951 73.3199C110.506 73.914 109.85 74.6526 108.994 75.2865C107.425 76.4474 105.024 77.4249 101.276 76.0002L98.687 82.8103C105.057 85.2321 110.04 83.5764 113.328 81.1423C114.9 79.9788 116.04 78.6795 116.784 77.6851C117.16 77.1828 117.446 76.7437 117.645 76.416C117.745 76.2517 117.824 76.1141 117.882 76.0091C117.912 75.9565 117.936 75.912 117.955 75.8762C117.964 75.8583 117.972 75.8425 117.98 75.829C117.983 75.8223 117.986 75.8161 117.989 75.8105C117.991 75.8077 117.992 75.8051 117.993 75.8026C117.994 75.8013 117.995 75.7995 117.995 75.7989C117.996 75.7972 117.997 75.7955 114.753 74.1387ZM91.6022 70.5945L84.4677 73.026L86.818 79.9223L93.9525 77.4907L91.6022 70.5945Z" fill="#12607D"/>
<path d="M222.943 46.8215C216.973 48.4181 216.049 52.1128 216.367 53.6005C219.978 46.571 223.925 53.7415 227.889 49.0929C230.357 46.1992 229.337 44.4499 229.337 44.4499C229.337 44.4499 228.774 45.2621 222.943 46.8215Z" fill="#12607D"/>
<path d="M215.97 42.8332C214.057 47.8641 215.541 52.6323 216.367 53.6005C214.405 46.1002 221.386 45.2274 221.437 40.4026C221.487 35.668 217.358 34.542 217.358 34.542C217.358 34.542 218 37.4908 215.97 42.8332Z" fill="#12607D"/>
</g>
<defs>
<clipPath id="clip0_32_163">
<rect width="232" height="95" fill="white"/>
</clipPath>
</defs>
</svg>
